<svg width="16" height="16" viewBox="0 0 16 16" fill="none" xmlns="http://www.w3.org/2000/svg">
<g clip-path="url(#clip0_1_2)">
<path fill-rule="evenodd" clip-rule="evenodd" d="M3.3865 6.82599H12.7V11.9456C12.7 12.3598 12.3417 12.7 11.9036 12.7H4.11766C3.68034 12.7 3.3212 12.3607 3.3212 11.9456V6.84389L2.70001 5.0462L4.05322 4.68243L4.75002 6.45734L3.3865 6.82599ZM4.73197 9.57827C4.62887 9.57827 4.54553 9.49933 4.54553 9.40167C4.54553 9.30402 4.62887 9.22508 4.73197 9.22508H9.41537C9.51847 9.22508 9.60181 9.30402 9.60181 9.40167C9.60181 9.49933 9.51847 9.57827 9.41537 9.57827H4.73197ZM4.73197 8.64239C4.62887 8.64239 4.54553 8.56346 4.54553 8.4658C4.54553 8.36814 4.62887 8.28921 4.73197 8.28921H7.78636C7.88946 8.28921 7.9728 8.36814 7.9728 8.4658C7.9728 8.56346 7.88946 8.64239 7.78636 8.64239H4.73197ZM11.8279 7.74559H4.19413C4.16749 7.74559 4.14344 7.75616 4.12625 7.77244C4.10907 7.78872 4.0979 7.8115 4.0979 7.83673V10.034C4.0979 10.0592 4.10907 10.082 4.12625 10.0983C4.14344 10.1146 4.16749 10.1251 4.19413 10.1251H11.8279C11.8546 10.1251 11.8786 10.1146 11.8958 10.0983C11.913 10.082 11.9242 10.0584 11.9242 10.034V7.83673C11.9242 7.8115 11.913 7.78872 11.8958 7.77244C11.8786 7.75616 11.8537 7.74559 11.8279 7.74559ZM5.57139 6.23435L7.19868 5.79327L6.5036 4.02244L4.93904 4.44318L5.57139 6.23435ZM8.02177 5.57029L9.8587 5.07225L9.1662 3.30629L7.39114 3.784L8.02177 5.57029ZM10.6809 4.85008L12.0436 4.48061L11.4216 2.70001L10.052 3.06866L10.6809 4.85008Z" fill="white"/>
</g>
<defs>
<clipPath id="clip0_1_2">
<rect width="10" height="10" fill="white" transform="translate(2.70001 2.70001)"/>
</clipPath>
</defs>
</svg>
